<mxfile host="app.diagrams.net" modified="2023-10-29T09:57:01.205Z" agent="Mozilla/5.0 (Windows NT 10.0; Win64; x64) AppleWebKit/537.36 (KHTML, like Gecko) Chrome/118.0.0.0 Safari/537.36" version="22.0.8" etag="5X050UjfjhU6dgP9NWW4" type="github">
  <diagram name="Page-1" id="1ObZSKKfOOqM2Pv5D0Hr">
    <mxGraphModel>
      <root>
        <mxCell id="0" />
        <mxCell id="1" parent="0" />
      </root>
    </mxGraphModel>
  </diagram>
</mxfile>
